<svg xmlns="http://www.w3.org/2000/svg" xmlns:xlink="http://www.w3.org/1999/xlink" width="400" zoomAndPan="magnify" viewBox="0 0 300 299.999988" height="400" preserveAspectRatio="xMidYMid meet" version="1.0"><defs><g/><clipPath id="a47f2cf83d"><path d="M 0.589844 1.132812 L 17.152344 1.132812 L 17.152344 17.691406 L 0.589844 17.691406 Z M 0.589844 1.132812 " clip-rule="nonzero"/></clipPath><clipPath id="608fdab16f"><path d="M 8.871094 1.132812 C 4.296875 1.132812 0.589844 4.835938 0.589844 9.410156 C 0.589844 13.984375 4.296875 17.691406 8.871094 17.691406 C 13.445312 17.691406 17.152344 13.984375 17.152344 9.410156 C 17.152344 4.835938 13.445312 1.132812 8.871094 1.132812 Z M 8.871094 1.132812 " clip-rule="nonzero"/></clipPath><clipPath id="6639541e3c"><path d="M 0.589844 0.132812 L 17.152344 0.132812 L 17.152344 16.691406 L 0.589844 16.691406 Z M 0.589844 0.132812 " clip-rule="nonzero"/></clipPath><clipPath id="3c51a48c6c"><path d="M 8.871094 0.132812 C 4.296875 0.132812 0.589844 3.835938 0.589844 8.410156 C 0.589844 12.984375 4.296875 16.691406 8.871094 16.691406 C 13.445312 16.691406 17.152344 12.984375 17.152344 8.410156 C 17.152344 3.835938 13.445312 0.132812 8.871094 0.132812 Z M 8.871094 0.132812 " clip-rule="nonzero"/></clipPath><clipPath id="6166cb9141"><rect x="0" width="18" y="0" height="17"/></clipPath><clipPath id="3771de304f"><path d="M 0.28125 1 L 36 1 L 36 17.960938 L 0.28125 17.960938 Z M 0.28125 1 " clip-rule="nonzero"/></clipPath><clipPath id="273816b209"><rect x="0" width="37" y="0" height="18"/></clipPath></defs><g transform="matrix(1, 0, 0, 1, 209, 115)"><g clip-path="url(#273816b209)"><g clip-path="url(#a47f2cf83d)"><g clip-path="url(#608fdab16f)"><g transform="matrix(1, 0, 0, 1, 0, 1)"><g clip-path="url(#6166cb9141)"><g clip-path="url(#6639541e3c)"><g clip-path="url(#3c51a48c6c)"><path fill="#fc6a03" d="M 0.589844 0.132812 L 17.152344 0.132812 L 17.152344 16.691406 L 0.589844 16.691406 Z M 0.589844 0.132812 " fill-opacity="1" fill-rule="nonzero"/></g></g></g></g></g></g><g clip-path="url(#3771de304f)"><path fill="#fc6a03" d="M 27.621094 1.359375 C 26.886719 1.359375 26.167969 1.453125 25.460938 1.644531 C 24.753906 1.835938 24.085938 2.121094 23.457031 2.492188 C 22.824219 2.863281 22.253906 3.3125 21.742188 3.835938 C 21.234375 4.359375 20.800781 4.945312 20.449219 5.585938 C 19.757812 5.140625 19.007812 4.910156 18.1875 4.886719 C 17.371094 4.867188 16.605469 5.058594 15.894531 5.46875 C 15.730469 5.183594 15.550781 4.910156 15.355469 4.644531 C 15.15625 4.382812 14.945312 4.132812 14.71875 3.894531 C 14.492188 3.65625 14.253906 3.433594 14 3.226562 C 13.746094 3.019531 13.480469 2.824219 13.203125 2.648438 C 12.925781 2.472656 12.640625 2.3125 12.34375 2.167969 C 12.046875 2.027344 11.746094 1.902344 11.433594 1.796875 C 11.121094 1.691406 10.804688 1.605469 10.484375 1.535156 C 10.164062 1.46875 9.839844 1.421875 9.511719 1.390625 C 9.183594 1.363281 8.855469 1.351562 8.527344 1.363281 C 8.199219 1.375 7.875 1.40625 7.550781 1.453125 C 7.226562 1.503906 6.90625 1.574219 6.589844 1.660156 C 6.273438 1.75 5.960938 1.855469 5.660156 1.980469 C 5.355469 2.105469 5.058594 2.25 4.773438 2.410156 C 4.488281 2.570312 4.210938 2.75 3.945312 2.941406 C 3.683594 3.136719 3.429688 3.347656 3.1875 3.570312 C 2.949219 3.792969 2.722656 4.03125 2.511719 4.285156 C 2.300781 4.535156 2.105469 4.796875 1.925781 5.074219 C 1.746094 5.347656 1.582031 5.632812 1.4375 5.925781 C 1.292969 6.222656 1.164062 6.523438 1.054688 6.832031 C 0.945312 7.144531 0.855469 7.457031 0.785156 7.78125 C 0.714844 8.101562 0.664062 8.421875 0.628906 8.75 C 0.597656 9.078125 0.585938 9.40625 0.59375 9.734375 C 0.597656 10.0625 0.625 10.386719 0.671875 10.714844 C 0.71875 11.039062 0.785156 11.359375 0.867188 11.675781 C 0.953125 11.996094 1.054688 12.304688 1.179688 12.609375 C 1.300781 12.914062 1.441406 13.210938 1.597656 13.5 C 1.757812 13.789062 1.929688 14.066406 2.121094 14.332031 C 2.3125 14.597656 2.519531 14.855469 2.742188 15.097656 C 2.964844 15.339844 3.199219 15.566406 3.449219 15.78125 C 3.695312 15.996094 3.957031 16.191406 4.230469 16.375 C 4.503906 16.558594 4.785156 16.722656 5.078125 16.871094 C 5.371094 17.019531 5.671875 17.152344 5.980469 17.265625 C 6.289062 17.375 6.605469 17.46875 6.925781 17.542969 C 7.242188 17.621094 7.566406 17.675781 7.894531 17.710938 C 8.21875 17.746094 8.546875 17.761719 8.875 17.757812 C 9.203125 17.757812 9.53125 17.734375 9.855469 17.691406 C 10.183594 17.648438 10.503906 17.585938 10.824219 17.503906 C 11.140625 17.421875 11.453125 17.324219 11.757812 17.203125 C 12.066406 17.085938 12.363281 16.949219 12.652344 16.792969 C 12.941406 16.636719 13.222656 16.46875 13.492188 16.277344 C 13.761719 16.089844 14.015625 15.886719 14.261719 15.667969 C 14.507812 15.449219 14.738281 15.214844 14.953125 14.96875 C 15.171875 14.722656 15.371094 14.464844 15.558594 14.191406 C 15.742188 13.921875 15.910156 13.640625 16.0625 13.347656 C 16.214844 13.058594 16.347656 12.757812 16.464844 12.449219 C 16.578125 12.144531 16.675781 11.832031 16.753906 11.511719 C 16.832031 11.191406 16.890625 10.871094 16.929688 10.542969 C 16.96875 10.21875 16.988281 9.890625 16.992188 9.5625 C 16.992188 9.480469 16.992188 9.402344 16.992188 9.328125 C 16.992188 9.25 16.984375 9.167969 16.980469 9.089844 C 16.980469 9.054688 16.980469 9.015625 16.972656 8.972656 C 16.972656 8.917969 16.964844 8.855469 16.957031 8.804688 C 16.953125 8.726562 16.941406 8.648438 16.933594 8.570312 L 16.921875 8.484375 C 16.921875 8.4375 16.910156 8.386719 16.902344 8.339844 L 16.886719 8.234375 C 16.875 8.171875 16.867188 8.117188 16.855469 8.050781 C 16.84375 7.984375 16.828125 7.917969 16.8125 7.855469 C 16.796875 7.789062 16.792969 7.757812 16.78125 7.710938 C 16.78125 7.6875 16.773438 7.667969 16.765625 7.644531 C 16.753906 7.589844 16.738281 7.527344 16.722656 7.476562 C 16.71875 7.449219 16.710938 7.425781 16.703125 7.398438 C 16.695312 7.359375 16.683594 7.320312 16.667969 7.28125 C 16.65625 7.242188 16.636719 7.171875 16.621094 7.117188 C 16.601562 7.0625 16.582031 6.992188 16.558594 6.929688 C 16.546875 6.890625 16.53125 6.847656 16.515625 6.804688 C 16.5 6.765625 16.484375 6.710938 16.464844 6.664062 L 16.433594 6.582031 C 16.417969 6.539062 16.398438 6.496094 16.382812 6.453125 C 16.324219 6.3125 16.261719 6.175781 16.199219 6.042969 C 16.175781 5.992188 16.152344 5.945312 16.128906 5.894531 C 16.769531 5.527344 17.457031 5.355469 18.195312 5.378906 C 18.929688 5.398438 19.605469 5.613281 20.222656 6.019531 C 20.1875 6.089844 20.15625 6.164062 20.125 6.234375 C 20.09375 6.308594 20.0625 6.371094 20.035156 6.441406 C 20.007812 6.511719 19.992188 6.550781 19.96875 6.605469 C 19.949219 6.660156 19.929688 6.710938 19.910156 6.761719 C 19.890625 6.8125 19.875 6.859375 19.859375 6.910156 C 19.839844 6.960938 19.824219 7.007812 19.808594 7.054688 C 19.808594 7.070312 19.800781 7.082031 19.796875 7.097656 C 19.777344 7.15625 19.761719 7.214844 19.742188 7.273438 C 19.726562 7.332031 19.710938 7.390625 19.695312 7.449219 C 19.679688 7.496094 19.667969 7.542969 19.660156 7.585938 C 19.648438 7.628906 19.636719 7.671875 19.628906 7.714844 C 19.628906 7.734375 19.617188 7.75 19.613281 7.769531 C 19.601562 7.832031 19.585938 7.898438 19.574219 7.960938 C 19.574219 7.964844 19.574219 7.96875 19.574219 7.972656 L 19.566406 8.007812 C 19.5625 8.039062 19.554688 8.070312 19.550781 8.101562 C 19.550781 8.125 19.542969 8.144531 19.539062 8.167969 C 19.535156 8.191406 19.527344 8.226562 19.523438 8.253906 C 19.523438 8.261719 19.523438 8.265625 19.523438 8.277344 L 19.515625 8.339844 C 19.515625 8.351562 19.515625 8.367188 19.515625 8.378906 L 19.515625 8.402344 C 19.515625 8.4375 19.503906 8.476562 19.5 8.519531 C 19.5 8.519531 19.5 8.527344 19.5 8.53125 C 19.488281 8.613281 19.480469 8.695312 19.472656 8.777344 C 19.464844 8.859375 19.457031 8.929688 19.453125 9.003906 C 19.453125 9.019531 19.453125 9.035156 19.453125 9.050781 C 19.449219 9.132812 19.445312 9.21875 19.441406 9.300781 C 19.4375 9.382812 19.441406 9.476562 19.441406 9.5625 C 19.441406 10.101562 19.496094 10.636719 19.601562 11.164062 C 19.707031 11.695312 19.859375 12.207031 20.066406 12.703125 C 20.273438 13.203125 20.527344 13.675781 20.828125 14.121094 C 21.125 14.570312 21.464844 14.984375 21.847656 15.367188 C 22.230469 15.746094 22.644531 16.085938 23.09375 16.386719 C 23.539062 16.683594 24.011719 16.9375 24.511719 17.140625 C 25.007812 17.347656 25.523438 17.503906 26.050781 17.605469 C 26.578125 17.710938 27.113281 17.765625 27.652344 17.761719 C 28.191406 17.761719 28.726562 17.710938 29.253906 17.605469 C 29.78125 17.496094 30.292969 17.339844 30.792969 17.132812 C 31.289062 16.929688 31.761719 16.675781 32.210938 16.375 C 32.65625 16.074219 33.070312 15.734375 33.453125 15.351562 C 33.832031 14.96875 34.171875 14.554688 34.46875 14.105469 C 34.769531 13.660156 35.019531 13.183594 35.226562 12.6875 C 35.429688 12.1875 35.585938 11.675781 35.691406 11.148438 C 35.792969 10.617188 35.84375 10.085938 35.84375 9.546875 C 35.84375 9.007812 35.789062 8.472656 35.683594 7.945312 C 35.578125 7.417969 35.421875 6.902344 35.214844 6.40625 C 35.003906 5.910156 34.75 5.4375 34.453125 4.988281 C 34.152344 4.542969 33.808594 4.128906 33.429688 3.75 C 33.046875 3.367188 32.628906 3.03125 32.183594 2.730469 C 31.734375 2.433594 31.257812 2.179688 30.761719 1.976562 C 30.261719 1.773438 29.75 1.617188 29.222656 1.515625 C 28.691406 1.410156 28.160156 1.359375 27.621094 1.359375 Z M 16.503906 9.5625 C 16.503906 10.683594 16.265625 11.753906 15.796875 12.773438 C 15.664062 13.058594 15.515625 13.335938 15.351562 13.601562 C 15.1875 13.871094 15.007812 14.125 14.808594 14.371094 C 14.613281 14.613281 14.402344 14.847656 14.179688 15.066406 C 13.953125 15.285156 13.71875 15.488281 13.46875 15.679688 C 13.21875 15.871094 12.957031 16.046875 12.6875 16.203125 C 12.417969 16.363281 12.136719 16.503906 11.847656 16.628906 C 11.5625 16.753906 11.265625 16.859375 10.964844 16.945312 C 10.664062 17.035156 10.359375 17.105469 10.050781 17.15625 C 9.738281 17.207031 9.429688 17.238281 9.113281 17.253906 C 8.800781 17.265625 8.488281 17.261719 8.175781 17.234375 C 7.863281 17.210938 7.550781 17.164062 7.246094 17.101562 C 6.9375 17.039062 6.636719 16.957031 6.335938 16.859375 C 6.039062 16.757812 5.75 16.640625 5.464844 16.503906 C 5.183594 16.371094 4.910156 16.21875 4.644531 16.050781 C 4.378906 15.878906 4.128906 15.695312 3.886719 15.496094 C 3.644531 15.296875 3.414062 15.082031 3.199219 14.855469 C 2.984375 14.628906 2.78125 14.386719 2.59375 14.136719 C 2.40625 13.882812 2.238281 13.621094 2.082031 13.347656 C 1.929688 13.074219 1.789062 12.792969 1.671875 12.503906 C 1.550781 12.214844 1.449219 11.917969 1.363281 11.613281 C 1.28125 11.3125 1.214844 11.007812 1.167969 10.695312 C 1.121094 10.386719 1.09375 10.074219 1.085938 9.761719 C 1.078125 9.445312 1.085938 9.132812 1.117188 8.820312 C 1.148438 8.507812 1.195312 8.199219 1.261719 7.894531 C 1.328125 7.585938 1.414062 7.285156 1.519531 6.988281 C 1.625 6.691406 1.746094 6.40625 1.886719 6.125 C 2.023438 5.84375 2.179688 5.570312 2.355469 5.308594 C 2.527344 5.046875 2.714844 4.796875 2.917969 4.558594 C 3.121094 4.316406 3.335938 4.09375 3.566406 3.878906 C 3.800781 3.667969 4.042969 3.46875 4.296875 3.285156 C 4.550781 3.101562 4.816406 2.9375 5.09375 2.785156 C 5.367188 2.636719 5.652344 2.5 5.941406 2.386719 C 6.234375 2.269531 6.53125 2.171875 6.835938 2.09375 C 7.136719 2.011719 7.445312 1.953125 7.757812 1.910156 C 8.066406 1.867188 8.378906 1.84375 8.695312 1.839844 C 9.007812 1.835938 9.320312 1.851562 9.632812 1.886719 C 9.945312 1.917969 10.253906 1.972656 10.558594 2.042969 C 10.863281 2.117188 11.164062 2.207031 11.457031 2.316406 C 11.753906 2.421875 12.039062 2.550781 12.316406 2.691406 C 12.597656 2.835938 12.867188 2.996094 13.125 3.171875 C 13.386719 3.347656 13.632812 3.539062 13.871094 3.746094 C 14.105469 3.953125 14.328125 4.175781 14.539062 4.40625 C 14.746094 4.640625 14.941406 4.886719 15.121094 5.144531 C 15.300781 5.402344 15.460938 5.667969 15.609375 5.945312 C 15.757812 6.222656 15.886719 6.511719 15.996094 6.804688 C 16.109375 7.097656 16.203125 7.394531 16.277344 7.699219 C 16.351562 8.003906 16.410156 8.3125 16.445312 8.625 C 16.484375 8.933594 16.503906 9.25 16.503906 9.5625 Z M 27.621094 17.273438 C 27.113281 17.273438 26.613281 17.222656 26.113281 17.125 C 25.617188 17.027344 25.136719 16.878906 24.667969 16.6875 C 24.199219 16.492188 23.753906 16.257812 23.335938 15.976562 C 22.914062 15.695312 22.523438 15.375 22.164062 15.015625 C 21.808594 14.65625 21.488281 14.269531 21.207031 13.847656 C 20.925781 13.425781 20.6875 12.980469 20.496094 12.511719 C 20.300781 12.046875 20.15625 11.5625 20.054688 11.066406 C 19.957031 10.570312 19.90625 10.066406 19.910156 9.5625 C 19.910156 9.054688 19.957031 8.554688 20.054688 8.058594 C 20.15625 7.5625 20.300781 7.078125 20.496094 6.613281 C 20.6875 6.144531 20.925781 5.699219 21.207031 5.277344 C 21.488281 4.859375 21.808594 4.46875 22.167969 4.109375 C 22.523438 3.753906 22.914062 3.433594 23.335938 3.152344 C 23.757812 2.871094 24.199219 2.632812 24.667969 2.4375 C 25.136719 2.246094 25.617188 2.097656 26.113281 2 C 26.613281 1.902344 27.113281 1.851562 27.621094 1.851562 C 28.121094 1.859375 28.617188 1.914062 29.109375 2.015625 C 29.601562 2.121094 30.078125 2.269531 30.539062 2.464844 C 31.003906 2.664062 31.441406 2.902344 31.859375 3.183594 C 32.273438 3.464844 32.65625 3.785156 33.011719 4.144531 C 33.363281 4.5 33.679688 4.890625 33.957031 5.308594 C 34.234375 5.726562 34.464844 6.167969 34.65625 6.632812 C 34.847656 7.097656 34.992188 7.578125 35.089844 8.070312 C 35.1875 8.5625 35.234375 9.058594 35.234375 9.5625 C 35.234375 10.066406 35.1875 10.5625 35.089844 11.054688 C 34.992188 11.546875 34.847656 12.027344 34.65625 12.492188 C 34.464844 12.957031 34.234375 13.398438 33.957031 13.816406 C 33.679688 14.234375 33.363281 14.625 33.011719 14.980469 C 32.65625 15.339844 32.273438 15.660156 31.859375 15.941406 C 31.441406 16.222656 31.003906 16.460938 30.539062 16.660156 C 30.078125 16.855469 29.601562 17.003906 29.109375 17.109375 C 28.617188 17.210938 28.121094 17.265625 27.621094 17.273438 Z M 27.621094 17.273438 " fill-opacity="1" fill-rule="nonzero"/></g></g></g><g fill="#fc6a03" fill-opacity="1"><g transform="translate(53.656312, 162.374987)"><g><path d="M 3.390625 -29.21875 L 3.390625 -35.609375 L 10.265625 -35.609375 L 10.265625 -29.21875 Z M 3.390625 0 L 3.390625 -26.125 L 10.265625 -26.125 L 10.265625 0 Z M 3.390625 0 "/></g></g></g><g fill="#fc6a03" fill-opacity="1"><g transform="translate(65.587921, 162.374987)"><g><path d="M 26.8125 -18.265625 L 26.8125 0 L 19.9375 0 L 19.9375 -16.546875 C 19.9375 -17.984375 19.550781 -19.085938 18.78125 -19.859375 C 18.007812 -20.628906 16.90625 -21.015625 15.46875 -21.015625 C 13.863281 -21.015625 12.5625 -20.488281 11.5625 -19.4375 C 10.5625 -18.394531 10.0625 -16.972656 10.0625 -15.171875 L 10.0625 0 L 3.1875 0 L 3.1875 -26.125 L 9.765625 -26.125 L 9.765625 -22.296875 L 9.875 -22.296875 C 10.6875 -23.835938 11.765625 -24.972656 13.109375 -25.703125 C 14.453125 -26.441406 15.992188 -26.8125 17.734375 -26.8125 C 19.523438 -26.8125 21.109375 -26.441406 22.484375 -25.703125 C 23.867188 -24.972656 24.9375 -23.957031 25.6875 -22.65625 C 26.4375 -21.363281 26.8125 -19.898438 26.8125 -18.265625 Z M 26.8125 -18.265625 "/></g></g></g><g fill="#fc6a03" fill-opacity="1"><g transform="translate(91.906263, 162.374987)"><g><path d="M 13.796875 -6.875 L 19.34375 -26.125 L 26.671875 -26.125 L 17.234375 0 L 10.015625 0 L 0.640625 -26.125 L 8.296875 -26.125 L 13.703125 -6.875 Z M 13.796875 -6.875 "/></g></g></g><g fill="#fc6a03" fill-opacity="1"><g transform="translate(117.48812, 162.374987)"><g><path d="M 14.140625 -4.8125 C 15.160156 -4.8125 16.085938 -5.054688 16.921875 -5.546875 C 17.753906 -6.035156 18.300781 -6.738281 18.5625 -7.65625 L 25.640625 -7.65625 C 24.878906 -5.007812 23.484375 -2.957031 21.453125 -1.5 C 19.429688 -0.0390625 16.992188 0.6875 14.140625 0.6875 C 9.816406 0.6875 6.566406 -0.503906 4.390625 -2.890625 C 2.210938 -5.285156 1.125 -8.835938 1.125 -13.546875 C 1.125 -16.140625 1.609375 -18.429688 2.578125 -20.421875 C 3.546875 -22.421875 4.960938 -23.984375 6.828125 -25.109375 C 8.691406 -26.242188 10.953125 -26.8125 13.609375 -26.8125 C 17.335938 -26.8125 20.320312 -25.613281 22.5625 -23.21875 C 24.8125 -20.832031 25.9375 -17.21875 25.9375 -12.375 L 25.9375 -11.203125 L 8 -11.203125 C 8.226562 -6.941406 10.273438 -4.8125 14.140625 -4.8125 Z M 13.5 -21.171875 C 10.363281 -21.171875 8.597656 -19.335938 8.203125 -15.671875 L 18.859375 -15.671875 C 18.691406 -17.367188 18.132812 -18.707031 17.1875 -19.6875 C 16.238281 -20.675781 15.007812 -21.171875 13.5 -21.171875 Z M 13.5 -21.171875 "/></g></g></g><g fill="#fc6a03" fill-opacity="1"><g transform="translate(143.069978, 162.374987)"><g><path d="M 26.8125 -18.265625 L 26.8125 0 L 19.9375 0 L 19.9375 -16.546875 C 19.9375 -17.984375 19.550781 -19.085938 18.78125 -19.859375 C 18.007812 -20.628906 16.90625 -21.015625 15.46875 -21.015625 C 13.863281 -21.015625 12.5625 -20.488281 11.5625 -19.4375 C 10.5625 -18.394531 10.0625 -16.972656 10.0625 -15.171875 L 10.0625 0 L 3.1875 0 L 3.1875 -26.125 L 9.765625 -26.125 L 9.765625 -22.296875 L 9.875 -22.296875 C 10.6875 -23.835938 11.765625 -24.972656 13.109375 -25.703125 C 14.453125 -26.441406 15.992188 -26.8125 17.734375 -26.8125 C 19.523438 -26.8125 21.109375 -26.441406 22.484375 -25.703125 C 23.867188 -24.972656 24.9375 -23.957031 25.6875 -22.65625 C 26.4375 -21.363281 26.8125 -19.898438 26.8125 -18.265625 Z M 26.8125 -18.265625 "/></g></g></g><g fill="#fc6a03" fill-opacity="1"><g transform="translate(171.352423, 162.374987)"><g><path d="M 3.390625 0 L 3.390625 -35.265625 L 10.265625 -35.265625 L 10.265625 0 Z M 3.390625 0 "/></g></g></g><g fill="#fc6a03" fill-opacity="1"><g transform="translate(183.284032, 162.374987)"><g><path d="M 25.875 -1.03125 L 25.875 0 L 18.46875 0 C 18.070312 -1.144531 17.859375 -2.175781 17.828125 -3.09375 C 16.578125 -1.75 15.28125 -0.78125 13.9375 -0.1875 C 12.601562 0.394531 11.082031 0.6875 9.375 0.6875 C 6.988281 0.6875 5.066406 0 3.609375 -1.375 C 2.148438 -2.75 1.421875 -4.597656 1.421875 -6.921875 C 1.421875 -9.117188 2.019531 -10.941406 3.21875 -12.390625 C 4.414062 -13.847656 6.550781 -14.84375 9.625 -15.375 L 14.53125 -16.109375 C 15.78125 -16.304688 16.609375 -16.550781 17.015625 -16.84375 C 17.421875 -17.132812 17.625 -17.625 17.625 -18.3125 C 17.625 -19.300781 17.269531 -20.046875 16.5625 -20.546875 C 15.863281 -21.054688 14.710938 -21.3125 13.109375 -21.3125 C 10.523438 -21.3125 9.117188 -20.097656 8.890625 -17.671875 L 2.265625 -17.671875 C 2.523438 -20.648438 3.53125 -22.914062 5.28125 -24.46875 C 7.03125 -26.03125 9.851562 -26.8125 13.75 -26.8125 C 17.09375 -26.8125 19.695312 -26.15625 21.5625 -24.84375 C 23.425781 -23.539062 24.359375 -21.742188 24.359375 -19.453125 L 24.359375 -4.859375 C 24.359375 -3.648438 24.476562 -2.757812 24.71875 -2.1875 C 24.96875 -1.613281 25.351562 -1.226562 25.875 -1.03125 Z M 17.625 -9.484375 L 17.625 -12.71875 C 17.039062 -12.351562 16.40625 -12.066406 15.71875 -11.859375 C 15.03125 -11.648438 14.03125 -11.445312 12.71875 -11.25 C 11.25 -11.050781 10.144531 -10.648438 9.40625 -10.046875 C 8.664062 -9.441406 8.296875 -8.546875 8.296875 -7.359375 C 8.296875 -6.410156 8.585938 -5.648438 9.171875 -5.078125 C 9.765625 -4.503906 10.535156 -4.21875 11.484375 -4.21875 C 12.503906 -4.21875 13.488281 -4.4375 14.4375 -4.875 C 15.382812 -5.320312 16.148438 -5.945312 16.734375 -6.75 C 17.328125 -7.550781 17.625 -8.460938 17.625 -9.484375 Z M 17.625 -9.484375 "/></g></g></g><g fill="#fc6a03" fill-opacity="1"><g transform="translate(208.129347, 162.374987)"><g><path d="M 11.984375 -7.359375 L 15.671875 -26.125 L 22.59375 -26.125 L 26.515625 -7.359375 L 26.625 -7.359375 L 30.6875 -26.125 L 37.765625 -26.125 L 30.25 0 L 23.171875 0 L 19.109375 -19.046875 L 19 -19.046875 L 14.921875 0 L 7.859375 0 L 0.484375 -26.125 L 7.8125 -26.125 L 11.890625 -7.359375 Z M 11.984375 -7.359375 "/></g></g></g></svg>